<svg width="102" height="26" viewBox="0 0 102 26" fill="none" xmlns="http://www.w3.org/2000/svg">
<path d="M17.5476 0.553801C17.1753 0.190966 16.6692 0 16.1536 0H7.33097C6.42388 0 5.63137 0.649284 5.4595 1.54682L4.75293 5.17517C4.70519 5.44253 4.9057 5.69078 5.1826 5.69078H6.47162C6.71988 5.69078 6.92994 5.51891 6.97768 5.27066L7.56967 2.19611H15.8576L11.6277 23.7943H3.33978L3.92223 20.8153C3.96997 20.5479 3.76945 20.2997 3.49255 20.2997H2.21308C1.96483 20.2997 1.75477 20.4715 1.70702 20.7198L1.12458 23.718C1.00045 24.3481 1.20096 24.9879 1.65928 25.4462C2.02212 25.809 2.52818 26 3.04378 26H11.8664C12.7735 26 13.566 25.3507 13.7379 24.4532L18.0728 2.28204C18.1969 1.65185 18.006 1.00257 17.5476 0.553801Z" fill="#7384AA"/>
<path d="M16.2868 25.9905H17.5758C17.8241 25.9905 18.0342 25.8186 18.0819 25.5703L22.9802 0.515608C23.0279 0.248256 22.8274 0 22.5505 0H21.2615C21.0132 0 20.8032 0.171869 20.7554 0.420125L15.8571 25.4748C15.8094 25.7422 16.0099 25.9905 16.2868 25.9905Z" fill="#7384AA"/>
<path d="M20.8416 25.9905H22.1306C22.3789 25.9905 22.5889 25.8186 22.6367 25.5703L27.5445 0.515608C27.5922 0.248256 27.3917 0 27.1148 0H25.8258C25.5775 0 25.3675 0.171869 25.3197 0.420125L20.4215 25.4844C20.3642 25.7422 20.5742 25.9905 20.8416 25.9905Z" fill="#7384AA"/>
<path d="M0.064511 15.4871C0.147596 15.1156 0.494263 14.8425 1.32321 14.8425C2.15215 14.8425 2.38231 15.1185 2.30591 15.4871V15.533C2.16743 16.2082 2.64398 16.6847 3.47292 16.6847C4.34771 16.6847 4.94649 16.2702 5.08497 15.5483C5.23873 14.7652 4.82425 14.3201 3.31917 13.7977C1.63072 13.2142 0.693859 12.1704 1.01665 10.5431C1.40056 8.57768 3.18165 7.41162 5.14609 7.41162C7.27957 7.41162 8.55546 8.762 8.09419 10.4972C7.99678 10.8621 7.66444 11.1419 6.83549 11.1419C6.00655 11.1419 5.77639 10.8659 5.85279 10.4972L5.86807 10.4208C5.97599 9.80677 5.59208 9.3159 4.77841 9.3159C3.96475 9.3159 3.44236 9.71509 3.30484 10.3597C3.18165 10.9891 3.58084 11.542 5.02385 12.0787C6.77437 12.7386 7.72556 13.6297 7.3722 15.4098C7.00357 17.3131 5.43737 18.5537 3.11957 18.588C0.834245 18.6215 -0.290751 17.0753 0.064511 15.4871Z" fill="#7384AA"/>
<path d="M31.4316 15.4847C31.5147 15.1132 31.8613 14.8401 32.6903 14.8401C33.5192 14.8401 33.7494 15.1161 33.673 15.4847V15.5305C33.5345 16.2057 34.011 16.6823 34.84 16.6823C35.7148 16.6823 36.3136 16.2678 36.452 15.5458C36.6058 14.7627 36.1913 14.3177 34.6862 13.7953C32.9978 13.2118 32.0609 12.168 32.3837 10.5406C32.7676 8.57524 34.5487 7.40918 36.5132 7.40918C38.6466 7.40918 39.9225 8.75956 39.4613 10.4948C39.3638 10.8596 39.0315 11.1394 38.2026 11.1394C37.3736 11.1394 37.1435 10.8634 37.2199 10.4948L37.2351 10.4184C37.3431 9.80433 36.9591 9.31346 36.1455 9.31346C35.3318 9.31346 34.8094 9.71265 34.6719 10.3573C34.5487 10.9866 34.9479 11.5396 36.3909 12.0763C38.1414 12.7362 39.0926 13.6272 38.7393 15.4073C38.3706 17.3107 36.8044 18.5512 34.4866 18.5856C32.2013 18.619 31.0763 17.0729 31.4316 15.4847Z" fill="#7384AA"/>
<path d="M48.0737 15.0574C47.644 17.2344 45.6961 18.5902 43.6242 18.5902C41.5522 18.5902 40.1199 17.2439 40.5592 15.0574L41.3612 10.942C41.7909 8.76504 43.7387 7.40918 45.8107 7.40918C47.8827 7.40918 49.3149 8.75549 48.8853 10.942L48.0737 15.0574ZM46.6128 11.0471C46.8133 9.96812 46.355 9.30929 45.4288 9.30929C44.5026 9.30929 43.7674 9.96812 43.5669 11.0471L42.803 14.9428C42.6025 16.0217 43.0608 16.6806 43.987 16.6806C44.9036 16.6806 45.6484 16.0217 45.8489 14.9428L46.6128 11.0471Z" fill="#7384AA"/>
<path d="M52.0654 17.8836C51.9891 18.256 51.6549 18.5329 50.8242 18.5329C49.9935 18.5329 49.7452 18.256 49.8311 17.8836L51.7026 8.28758C51.779 7.83881 51.9795 7.6001 52.4092 7.6001H57.718C58.0522 7.6001 58.2432 7.84835 58.1 8.55493C57.9567 9.2615 57.6894 9.50976 57.3457 9.50976H53.6887L53.2017 12.0305H56.3526C56.6868 12.0305 56.8778 12.2788 56.7346 12.9853C56.6009 13.6919 56.324 13.9402 55.9802 13.9402H52.8293L52.0654 17.8836Z" fill="#7384AA"/>
<path d="M66.3488 7.59082C66.683 7.59082 66.8739 7.83908 66.7307 8.54565C66.597 9.25222 66.3201 9.50048 65.9764 9.50048H63.8471L62.2239 17.8839C62.1475 18.2563 61.8133 18.5332 60.9826 18.5332C60.1519 18.5332 59.9037 18.2563 59.9896 17.8839L61.6128 9.50048H59.474C59.1398 9.50048 58.9488 9.25222 59.0921 8.54565C59.2257 7.83908 59.5026 7.59082 59.8464 7.59082H66.3488Z" fill="#7384AA"/>
<path d="M68.4025 17.8837C68.3261 18.256 67.9919 18.5329 67.1612 18.5329C66.3305 18.5329 66.0822 18.256 66.1682 17.8837L67.5145 10.942C67.9442 8.76504 69.892 7.40918 71.9831 7.40918C74.0742 7.40918 75.4969 8.75549 75.0672 10.942L73.7209 17.8837C73.6445 18.256 73.3103 18.5329 72.4796 18.5329C71.6489 18.5329 71.4006 18.256 71.4866 17.8837L72.8233 11.0566C73.0239 9.99677 72.5464 9.31884 71.6298 9.31884C70.7132 9.31884 69.9589 9.99677 69.7583 11.0566L68.4025 17.8837Z" fill="#7384AA"/>
<path d="M83.9753 15.0574C83.5456 17.2344 81.5978 18.5902 79.5258 18.5902C77.4538 18.5902 76.0216 17.2439 76.4512 15.0574L77.2533 10.942C77.683 8.76504 79.6308 7.40918 81.7028 7.40918C83.7748 7.40918 85.207 8.75549 84.7773 10.942L83.9753 15.0574ZM82.524 11.0471C82.7245 9.96812 82.2661 9.30929 81.34 9.30929C80.4233 9.30929 79.6786 9.96812 79.478 11.0471L78.7142 14.9428C78.5137 16.0217 78.972 16.6806 79.8982 16.6806C80.8148 16.6806 81.5596 16.0217 81.7601 14.9428L82.524 11.0471Z" fill="#7384AA"/>
<path d="M93.4758 7.59082C93.81 7.59082 94.001 7.83908 93.8577 8.54565C93.7241 9.25222 93.4472 9.50048 93.1034 9.50048H90.9742L89.3509 17.8839C89.2746 18.2563 88.9404 18.5332 88.1097 18.5332C87.279 18.5332 87.0307 18.2563 87.1166 17.8839L88.7399 9.50048H86.6106C86.2764 9.50048 86.0854 9.25222 86.2287 8.54565C86.3623 7.83908 86.6392 7.59082 86.983 7.59082H93.4758Z" fill="#7384AA"/>
<path d="M99.8822 11.8605C100.22 11.8605 100.404 12.1057 100.266 12.8116C100.127 13.5166 99.8517 13.7627 99.514 13.7627H96.4011L95.8793 16.4921H99.4529C99.7906 16.4921 99.9585 16.7373 99.8364 17.4432C99.6981 18.1482 99.4224 18.3943 99.0847 18.3943H93.855C93.4257 18.3943 93.3179 18.1491 93.3952 17.7046L95.2354 8.2869C95.3117 7.84234 95.5111 7.59717 95.9404 7.59717H101.093C101.431 7.59717 101.615 7.84234 101.476 8.54829C101.338 9.25328 101.062 9.4994 100.725 9.4994H97.2292L96.7694 11.8615H99.8822V11.8605Z" fill="#7384AA"/>
</svg>
